# xmcd CD database file
#
# Track frame offsets:
#	150
#	43303
#	73454
#	103089
#	135643
#	171709
#	208881
#	238074
#
# Disc length: 3741 seconds
#
# Revision: 0
# Processed by: cddbd v1.5.2PL0 Copyright (c) Steve Scherf et al.
# Submitted via: CDex 1.51
#
DISCID=880e9b08
DTITLE=Claus Koch  - Afro-Cuban Jazz Colors 
DYEAR=2004
DGENRE=Jazz
TTITLE0=BOOGALOO IN BLUE 
TTITLE1=TESTPILOT
TTITLE2=JAMAL'S KEY 
TTITLE3=PRELUDE TO A MIDSUMMER NIGHT
TTITLE4=SISTER SUSI 
TTITLE5=COORAWONG
TTITLE6=IN WALKED CESAR 
TTITLE7=SIMPLE PLEASURES 
EXTD=YEAR: 2004
EXTT0=
EXTT1=
EXTT2=
EXTT3=
EXTT4=
EXTT5=
EXTT6=
EXTT7=
PLAYORDER=
